<svg xmlns="http://www.w3.org/2000/svg" xmlns:xlink="http://www.w3.org/1999/xlink" width="37" height="37" viewBox="0 0 37 37"><defs><clipPath id="a"><rect width="37" height="37" rx="6" transform="translate(0 0.055)" fill="none"/></clipPath></defs><g transform="translate(0 -0.055)"><g clip-path="url(#a)"><path d="M0,37.055V0H37.055V37.055H25.475c.025-.3.073-.609.073-.914q.007-6.248,0-12.5v-.971h4.814l.71-5.543H25.552c0-1.256-.007-2.434,0-3.613.015-1.963.754-2.7,2.711-2.71.971,0,1.942,0,3,0,0-1.484-.022-2.892.012-4.3.013-.531-.177-.744-.689-.76-1.181-.038-2.361-.122-3.543-.138-3.292-.045-5.838,1.558-6.735,4.364a13.664,13.664,0,0,0-.5,3.254c-.083,1.273-.019,2.555-.019,3.909H15.025v5.58h4.738V37.055Z" fill="#fff"/></g></g></svg>