<svg xmlns="http://www.w3.org/2000/svg" xmlns:xlink="http://www.w3.org/1999/xlink" width="36.214" height="36.217" viewBox="0 0 36.214 36.217"><defs><clipPath id="a"><rect width="36.214" height="36.217" fill="none"/></clipPath></defs><g clip-path="url(#a)"><path d="M18.112,0q3.678,0,7.355,0a10.972,10.972,0,0,1,5.947,1.515,9.911,9.911,0,0,1,4.744,8.021c.057.67.053,1.346.054,2.019q.006,6.933,0,13.865a11.365,11.365,0,0,1-1.471,6,9.6,9.6,0,0,1-7.017,4.607,14.735,14.735,0,0,1-2.372.173c-4.9.015-9.807.008-14.71.007a10.645,10.645,0,0,1-7.012-2.347A9.8,9.8,0,0,1,.114,27.224a17.153,17.153,0,0,1-.1-2.056C.009,20.155-.023,15.142.033,10.13A9.867,9.867,0,0,1,3.448,2.437,9.512,9.512,0,0,1,9.466.081c2.879-.1,5.764-.023,8.646-.023,0-.019,0-.038,0-.057m-.028,32.868c2.3,0,4.606,0,6.909,0a15.048,15.048,0,0,0,1.613-.064,6.636,6.636,0,0,0,5.8-4.074,8.092,8.092,0,0,0,.6-3.274q0-7.214,0-14.428A11.282,11.282,0,0,0,32.921,9.5a6.674,6.674,0,0,0-3.032-5.051,7.32,7.32,0,0,0-3.963-1.067q-7.7-.014-15.394,0a9.065,9.065,0,0,0-1.248.087A6.27,6.27,0,0,0,3.863,7.581a8.7,8.7,0,0,0-.508,3.132q0,7.356.006,14.711a10.984,10.984,0,0,0,.155,1.889A6.147,6.147,0,0,0,7.6,32.353a8.924,8.924,0,0,0,3.13.515q3.677.007,7.354,0" transform="translate(0 0)" fill="#fff"/><path d="M127.925,117.737a9.34,9.34,0,1,1-9.318-9.352,9.352,9.352,0,0,1,9.318,9.352m-9.319,5.966a5.986,5.986,0,1,0-5.995-5.973,6.012,6.012,0,0,0,5.995,5.973" transform="translate(-100.396 -99.606)" fill="#fff"/><path d="M319.46,82.816a2.11,2.11,0,1,1,.052-4.22,2.11,2.11,0,0,1-.052,4.22" transform="translate(-291.661 -72.229)" fill="#fff"/></g></svg>