<svg xmlns="http://www.w3.org/2000/svg" width="393.034" height="143.602" viewBox="0 0 393.034 143.602"><path d="M.073,18.046c53.53,0,248.784.712,248.784.712s1.261.506,1.5-1.922c.2-1.994,4.8-26.143,6.505-35.023a3.362,3.362,0,0,1,3.757-2.771s118.254-.367,119.635,0,1.95-.642,3.636,2.448,9.09,36.674,9.09,36.674V72.848l-.073,17.226h-4.1l-236.65.04-1,1.257c-2.693,5.843-8.282,31.407-18.033,31.107H11.977C9.654,122.574,1.612,118.4,0,112.153c-.156.21.073-86.3.073-94.106" transform="translate(0.055 21.121)" fill="rgba(105,64,32,0.39)"/></svg>