<?xml version="1.0" encoding="UTF-8"?>
<svg id="Layer_2" data-name="Layer 2" xmlns="http://www.w3.org/2000/svg" viewBox="0 0 169.59 64.68">
  <defs>
    <style>
      .cls-1 {
        fill: #eabf9a;
        stroke-width: 0px;
      }
    </style>
  </defs>
  <g id="Layer_2-2" data-name="Layer 2">
    <g>
      <path class="cls-1" d="m119.38,37.26h-.01v3.79c-2.48,1.51-5.06,2.86-7.71,4.03v-10.36h5.27l-2.41-2.52h-2.86v-2.99l-2.52-2.64v5.62h-7.71V14.84l-2.52-2.52v19.87h-7.72V4.6l-3.95-3.95h-4.9l-3.91,3.91v27.63h-7.72V12.28l-2.52,2.52v17.39h-7.72v-5.66l-2.52,2.64v3.02h-2.89l-2.41,2.52h5.31v10.37c-2.66-1.17-5.23-2.52-7.72-4.03v-3.82l-4.04,4.22c23.31,15.79,53.88,15.8,77.19,0l-4.01-4.2Zm-51.2,11.41c-2.62-.68-5.2-1.53-7.72-2.53v-11.42h7.72v13.95Zm10.24,1.79c-2.59-.25-5.17-.65-7.71-1.21v-14.54h7.71v15.75Zm6.38.31c-1.3,0-2.58-.05-3.86-.12v-15.94h7.71v15.94h.01c-1.28.07-2.56.12-3.86.12Zm3.86-18.58h-7.71V3.18h7.71v29.01Zm10.23,17.07h0c-2.55.54-5.11.95-7.71,1.2v-15.74h7.71v14.53s0,0,.01,0h-.01Zm10.25-3.13c-2.52,1-5.09,1.85-7.71,2.53v-13.95h7.71v11.42Z"/>
      <path class="cls-1" d="m125.46,43.61c-24.49,16.83-56.83,16.83-81.32,0l-3.53,3.69c26.51,18.65,61.86,18.66,88.38,0,0,0-3.53-3.69-3.53-3.69Z"/>
      <path class="cls-1" d="m60.61,16.93h0S76.87.66,76.87.66h-11.85l-10.34,10.34-1.15-1.15c-.43-.42-1.11-.42-1.54,0L10.28,49.76c-3.92,3.75-4.5,9.51-1.23,12.79,3.27,3.28,9.04,2.7,12.79-1.23L61.76,19.61c.41-.43.41-1.12-.01-1.54l-1.14-1.14ZM21.94,53.3h0s-4.02,5.24-4.02,5.24c-.65.85-1.63,1.39-2.7,1.46-1.89.12-3.51-1.32-3.63-3.2v-.42c.08-1.07.61-2.05,1.47-2.7l5.24-4.02c1.03-.59,2.33-.35,3.09.55.91.76,1.14,2.06.55,3.09Z"/>
      <path class="cls-1" d="m14.6,0H0v3.43h10.25c2.61,10.14,7.26,19.64,13.68,27.92l3.66-3.51C21.3,19.61,16.88,10.11,14.62,0"/>
      <path class="cls-1" d="m17.79.66c2.22,9.11,6.28,17.67,11.94,25.15l1.84-1.76c-.62-.83-1.22-1.68-1.81-2.54V3.18h7.71v15.21l2.52-2.42V3.18h7.72v5.41l1.63-1.57.02-.02c.27-.25.56-.46.87-.65v-3.17h6.82l2.52-2.52s-41.78,0-41.78,0Zm9.44,16.78c-2.6-4.5-4.66-9.28-6.13-14.26h6.13v14.26Z"/>
      <path class="cls-1" d="m109.98.66l2.52,2.52h6.86v3.2c.3.18.58.39.84.63l.03.03,1.65,1.58V3.18h7.71v12.83l2.52,2.41V3.18h7.71v18.32c-.59.87-1.2,1.72-1.82,2.56l1.84,1.76c5.66-7.48,9.73-16.05,11.95-25.16h-41.81Zm32.39,2.52h6.13c-1.48,4.98-3.54,9.76-6.13,14.26V3.18Z"/>
      <path class="cls-1" d="m154.98,0c-2.26,10.12-6.7,19.62-12.99,27.86l3.66,3.51c6.42-8.28,11.08-17.79,13.69-27.94h10.25V0h-14.61Z"/>
      <path class="cls-1" d="m159.29,49.76h-.01L118.26,10.5l-.69-.66c-.44-.41-1.11-.4-1.54,0l-1.15,1.16L104.54.66h-11.85l16.27,16.27-1.14,1.14c-.41.43-.42,1.11-.01,1.54l1.33,1.39,38.59,40.32c3.75,3.92,9.51,4.5,12.79,1.23,3.28-3.27,2.69-9.04-1.23-12.79Zm-2.3,9.26h0c-.69.71-1.65,1.07-2.63,1-1.07-.08-2.05-.61-2.7-1.46l-4.03-5.24c-.64-1.38-.03-3.01,1.35-3.65.73-.34,1.57-.34,2.3,0l5.24,4.02c.85.65,1.39,1.63,1.46,2.7.07.98-.3,1.94-.99,2.63Z"/>
    </g>
  </g>
</svg>