<?xml version="1.0" encoding="UTF-8"?>
<svg id="Layer_2" data-name="Layer 2" xmlns="http://www.w3.org/2000/svg" viewBox="0 0 169.59 64.66">
  <defs>
    <style>
      .cls-1 {
        fill: #eabf9a;
        stroke-width: 0px;
      }
    </style>
  </defs>
  <g id="Layer_2-2" data-name="Layer 2">
    <g>
      <path class="cls-1" d="m52.08,61.48h-1.85v-1.84l-.12-.12c-.24-.21-.54-.32-.86-.31h-.02c-.51-.01-1.02-.05-1.52-.13v2.4h-7.71v-5.5c-.82-.5-1.66-1.05-2.52-1.67v7.16h-7.71v-13.53c-1.21-1.12-2.47-2.33-3.76-3.62-3.75,6.09-6.52,12.73-8.21,19.68h36.8l-2.52-2.52Zm-24.84,0h-6.13c1.48-4.98,3.54-9.76,6.13-14.26v14.26Z"/>
      <path class="cls-1" d="m84.79,11.35h.01c-13.94-.01-27.55,4.23-39.03,12.14.04.03.07.07.1.1.76.76,3.32,3.41,4.23,4.38.04.05.08.09.13.14v-4.5c2.48-1.51,5.06-2.86,7.72-4.03v10.37h-6.07c.76.87,1.47,1.71,2.13,2.52h3.94v5.51c1.04,1.65,1.89,3.42,2.52,5.27v-10.78h7.71v22.37l2.52,2.52v-24.89h7.71v29.01h-3.59l2.52,2.52h14.87l2.52-2.52h-3.56v-29.01h7.72v24.85l1.45-1.45c.39-.39.74-.76,1.08-1.12v-22.29h3.17c.23-.86.54-1.71.91-2.52h-4.08v-13.95c2.62.68,5.2,1.53,7.71,2.53v5.61l2.52-3.77v-.79l.4.18,1.43-2.14c-9-4.13-18.79-6.27-28.69-6.26Zm-16.62,18.58h-7.72v-11.42c2.52-1,5.09-1.85,7.72-2.53v13.95Zm2.52,0v-14.54c2.55-.55,5.12-.95,7.71-1.2v15.74h-7.71Zm17.96,31.53h-7.71v-29.01h7.71v29.01Zm.01-31.53h-7.72v-15.94c1.28-.07,2.56-.12,3.86-.12s2.58.05,3.86.12v15.94Zm10.24,0h-7.72v-15.74c2.59.25,5.17.65,7.72,1.2v14.54Z"/>
      <path class="cls-1" d="m58.76,50.86c-.32-.33-.6-.71-.82-1.12-.4-.75-.61-1.59-.61-2.44-.06-3.61-2.89-8.32-7.11-13.36-1.1-1.31-2.29-2.66-3.55-4-.73-.78-1.48-1.56-2.25-2.34-.59-.6-1.2-1.2-1.81-1.81-.7-.69-1.42-1.38-2.14-2.06-1.23-1.17-2.48-2.33-3.74-3.47C25.5,10.1,13.65,1.29,12.55.11c-.08-.09-.22-.1-.31-.02-.08.07-.1.18-.05.27.77,1.47,12.55,13.69,20.24,23.64,1.1,1.42,2.12,2.8,3,4.1.6.88,1.15,1.73,1.62,2.52,1.72,2.88,2.46,5.07,1.54,6.01-.31.28-.71.42-1.12.4-.85-.05-1.67-.27-2.44-.65-.79-.35-1.56-.75-2.31-1.2-.79-.46-1.63-1-2.5-1.6-1.29-.88-2.66-1.89-4.08-2.98C16.16,22.9,3.81,10.99,2.32,10.23c-.11-.06-.24-.01-.3.09-.05.09-.03.2.05.27,1.2,1.1,10.18,13.19,20.49,24.52,1.15,1.27,2.33,2.53,3.5,3.76.69.73,1.39,1.44,2.09,2.15.61.61,1.21,1.21,1.82,1.81,2.38,2.35,4.88,4.58,7.49,6.67.85.67,1.7,1.3,2.52,1.88,2.3,1.75,4.92,3.04,7.72,3.79.52.11,1.05.17,1.58.19.31,0,.63.03.94.09.99.18,1.89.65,2.61,1.35l7.21,7.21h11.86l-13.13-13.13v-.02Z"/>
      <path class="cls-1" d="m84.8,3.38c-16.14-.02-31.87,5.06-44.94,14.52,1.27,1.16,2.53,2.33,3.76,3.51,21.01-14.71,48.27-17.1,71.52-6.26l2.84-4.24c-10.36-4.97-21.7-7.55-33.18-7.53"/>
      <path class="cls-1" d="m23.73,42.01c-1.14-1.19-2.28-2.41-3.41-3.64-4.59,7.01-7.99,14.73-10.07,22.85H0v3.43h14.61c1.78-7.97,4.91-15.58,9.26-22.49-.05-.05-.1-.1-.15-.15"/>
      <path class="cls-1" d="m167.12,30.17c-1.49-4.23-4.83-10.16-12.18-17.52-7.34-7.34-13.28-10.68-17.5-12.17-3.75-1.3-7.91.1-10.11,3.42l-15.67,23.39-1.7,2.54c-.55.82-.99,1.7-1.33,2.63-1.05,2.87-.96,6.03.25,8.83.09.21.18.41.26.62.44,1.07.67,2.23.66,3.39,0,1.54-.21,3.08-.66,4.55-.8,2.5-2.5,5.15-6.06,8.74l-5.41,5.4h11.86c1.03-.99,1.97-1.82,2.86-2.52,1.99-1.72,4.4-2.9,6.98-3.42.83-.15,1.68-.23,2.52-.25.13,0,.26,0,.39-.01,1.39,0,2.76.32,4.01.92,1.06.46,2.18.77,3.32.9.84.1,1.68.11,2.52.03,2.01-.19,3.94-.88,5.62-2.01l2.1-1.4,23.85-15.95c3.31-2.2,4.71-6.35,3.42-10.11Zm-49.78.6h.01s-.09-.08-.14-.12c-.22-.19-.38-.43-.49-.7-.27-.65-.18-1.39.24-1.96l2.41-3.09,2.24-2.87,1.82-2.33,3.12-3.99,4.99-6.39c.66-.87,1.9-1.04,2.77-.39.05.04.09.07.14.11.75.69.86,1.84.25,2.66l-4.88,6.25-3.11,3.98-1.81,2.32-1.56,1.99-1.45,1.86-1.78,2.28c-.66.87-1.9,1.04-2.77.39Zm7.91,4.9h0c-.7.83-1.95.94-2.78.24-.04-.04-.09-.08-.13-.12-.19-.19-.34-.42-.44-.68-.18-.46-.18-.98,0-1.44.08-.2.19-.38.32-.55l.54-.64,2.14-2.52,1.3-1.53,1.64-1.94,1.9-2.25,3.26-3.85,6.11-7.22c.7-.84,1.95-.95,2.79-.25.04.04.09.08.13.12.72.73.77,1.88.12,2.67l-6.13,7.24-3.26,3.85-1.9,2.25-2.91,3.44-2.69,3.18Zm4.61,4.87h0c-.08.07-.17.14-.26.21-.89.63-2.13.41-2.75-.48-.55-.78-.46-1.85.22-2.53l19.58-19.58c.77-.77,2.02-.77,2.8,0,.77.77.77,2.02,0,2.8l-11.27,11.27-2.08,2.08-6.24,6.23Zm2.26,5.01v-.02c-.11-.07-.22-.16-.32-.25-.04-.04-.08-.08-.12-.13-.7-.84-.59-2.08.25-2.78l.19-.16,4.29-3.63,1.93-1.63,2.25-1.9,3.85-3.26,7.44-6.3c.79-.65,1.94-.6,2.67.12.04.04.08.08.12.13.7.84.59,2.08-.25,2.78l-7.56,6.4-3.86,3.26-2.25,1.91-1.93,1.64-4.35,3.68c-.67.55-1.62.61-2.35.14Zm26.14-9.47h0s-7.03,5.5-7.03,5.5l-4.01,3.13-2.34,1.83-2.03,1.58-.49.38-2.52,1.97-.25.19c-.82.61-1.97.5-2.66-.25-.04-.04-.08-.09-.11-.14-.66-.87-.48-2.11.38-2.77l2.63-2.05,2.98-2.33,2.33-1.82,3.99-3.12,6.74-5.26c.82-.61,1.97-.5,2.66.25.04.04.08.09.11.14.66.87.49,2.11-.38,2.77Z"/>
      <path class="cls-1" d="m159.34,61.23c-.96-3.73-2.19-7.38-3.7-10.93l-4.27,2.86c1.52,3.73,2.73,7.57,3.61,11.5h14.61v-3.43s-10.25,0-10.25,0Z"/>
      <path class="cls-1" d="m148.88,54.83l-2.16,1.44c.67,1.71,1.26,3.44,1.79,5.21h-6.13v-2.3l-2.47,1.66-.05.03v.61h-.99c-2.39,1.36-5.1,2.07-7.85,2.07-2.16,0-4.29-.44-6.26-1.31h-.03c-.71-.36-1.49-.56-2.29-.6h-.06c-2.52-.07-4.97.77-6.92,2.36h36.38c-.76-3.12-1.74-6.19-2.93-9.18"/>
    </g>
  </g>
</svg>