<?xml version="1.0" encoding="UTF-8"?>
<svg id="Layer_2" data-name="Layer 2" xmlns="http://www.w3.org/2000/svg" viewBox="0 0 129 127.95">
  <defs>
    <style>
      .cls-1 {
        fill: #fff;
        stroke-width: 0px;
      }
    </style>
  </defs>
  <g id="Layer_1-2" data-name="Layer 1">
    <path class="cls-1" d="m0,27.44c.94-3.49,1.62-7.07,2.87-10.45C7.18,5.31,17.6-1.21,29.86.19c1.65.19,3.7,1.54,4.59,2.96,5.03,8.04,9.75,16.27,14.62,24.41,2.39,4,1.9,7.79-1.3,10.92-2.96,2.89-6.37,5.33-9.57,7.99-2.74,2.27-3.75,4.62-1.69,8.19,9.05,15.62,20.95,28.25,36.83,37.11,4.08,2.28,6.72,1.7,9.39-1.76,2.23-2.89,4.51-5.8,7.08-8.38,3.57-3.57,7.63-4.29,12.22-1.51,6.11,3.7,12.59,6.83,18.5,10.82,3.26,2.2,5.68,5.64,8.47,8.52v6c-2.61,7.73-6.32,14.61-14.31,18.05-10.05,4.33-20.5,5.65-31.19,3.28-15.13-3.34-27.94-11.52-39.74-21.01C21.89,88.21,5.36,66.88,0,38.44c0-3.67,0-7.33,0-11Z"/>
  </g>
</svg>