<svg xmlns="http://www.w3.org/2000/svg" xmlns:xlink="http://www.w3.org/1999/xlink" width="104.846" height="55.223" viewBox="0 0 104.846 55.223"><defs><clipPath id="a"><rect x="42" width="104.845" height="54.533" fill="none"/></clipPath><clipPath id="b"><path d="M0,0H156.845V89.175H0Z" fill="none"/></clipPath><clipPath id="c"><rect width="200.767" height="89.175" fill="none"/></clipPath><filter id="d" x="-0.799" y="-1.31" width="108.045" height="17.883" filterUnits="userSpaceOnUse"><feOffset dy="1" input="SourceAlpha"/><feGaussianBlur stdDeviation="1" result="e"/><feFlood flood-opacity="0.608"/><feComposite operator="in" in2="e"/><feComposite in="SourceGraphic"/></filter><filter id="f" x="26.163" y="12.051" width="53.824" height="40.148" filterUnits="userSpaceOnUse"><feOffset dx="-2" dy="5" input="SourceAlpha"/><feGaussianBlur stdDeviation="2" result="g"/><feFlood flood-opacity="0.584"/><feComposite operator="in" in2="g"/><feComposite in="SourceGraphic"/></filter><filter id="h" x="26.163" y="12.051" width="53.824" height="40.148" filterUnits="userSpaceOnUse"><feOffset dx="3" dy="1" input="SourceAlpha"/><feGaussianBlur stdDeviation="1.5" result="i"/><feFlood flood-color="#868383" flood-opacity="0.322" result="j"/><feComposite operator="out" in="SourceGraphic" in2="i"/><feComposite operator="in" in="j"/><feComposite operator="in" in2="SourceGraphic"/></filter><filter id="k" x="53.263" y="31.391" width="29.993" height="30.038" filterUnits="userSpaceOnUse"><feOffset dx="-2" dy="7" input="SourceAlpha"/><feGaussianBlur stdDeviation="3" result="l"/><feFlood flood-opacity="0.569"/><feComposite operator="in" in2="l"/><feComposite in="SourceGraphic"/></filter><filter id="m" x="53.263" y="31.391" width="29.993" height="30.038" filterUnits="userSpaceOnUse"><feOffset dx="2" input="SourceAlpha"/><feGaussianBlur stdDeviation="1.5" result="n"/><feFlood flood-color="#bcbaba" flood-opacity="0.161" result="o"/><feComposite operator="out" in="SourceGraphic" in2="n"/><feComposite operator="in" in="o"/><feComposite operator="in" in2="SourceGraphic"/></filter><filter id="p" x="55.492" y="32.398" width="41.779" height="47.059" filterUnits="userSpaceOnUse"><feOffset dx="-2" dy="7" input="SourceAlpha"/><feGaussianBlur stdDeviation="3" result="q"/><feFlood flood-opacity="0.58"/><feComposite operator="in" in2="q"/><feComposite in="SourceGraphic"/></filter><filter id="r" x="55.492" y="32.398" width="41.779" height="47.059" filterUnits="userSpaceOnUse"><feOffset dx="2" input="SourceAlpha"/><feGaussianBlur stdDeviation="1.5" result="s"/><feFlood flood-color="#bcbaba" flood-opacity="0.161" result="t"/><feComposite operator="out" in="SourceGraphic" in2="s"/><feComposite operator="in" in="t"/><feComposite operator="in" in2="SourceGraphic"/></filter><filter id="u" x="15.579" y="0" width="81" height="16" filterUnits="userSpaceOnUse"><feOffset dy="1" input="SourceAlpha"/><feGaussianBlur stdDeviation="0.5" result="v"/><feFlood flood-opacity="0.553"/><feComposite operator="in" in2="v"/><feComposite in="SourceGraphic"/></filter></defs><g transform="translate(10041 -1177.685)"><g transform="translate(-10083 1178.375)" clip-path="url(#a)" style="isolation:isolate"><g transform="translate(0 20.683)"><g transform="translate(0 -20.683)" clip-path="url(#b)"><g transform="translate(-0.885 0)"><g clip-path="url(#c)"><path d="M535.3,27.486h-2.62l5.1,4.454q1.279.442,2.75.883Z" transform="translate(-440.682 -15.097)" fill="#a5b0b5"/><path d="M566.284,32.823q.792.236,1.644.468c-.113-.24-.371-.749-.91-1.656a43.885,43.885,0,0,0-3.081-4.039l-.093-.109h-2.2Z" transform="translate(-466.435 -15.097)" fill="#a5b0b5"/><path d="M491.75,27.486h-4.341a11.482,11.482,0,0,1,1.116.509,66.381,66.381,0,0,0,9.008,3.945Z" transform="translate(-400.433 -15.097)" fill="#a5b0b5"/><g transform="matrix(1, 0, 0, 1, 42.88, -0.69)" filter="url(#d)"><path d="M262.908,10.569c-.692-1.323-1.36-2.735-2.064-4A18.571,18.571,0,0,0,258.2,3.143c-.265-.3-.531-.614-.8-.972a2.5,2.5,0,0,1-.22-1.354c0-.413.143-.817.3-.817H358.886c.2,0,.341.237.341.7,0,.494-.023,1.216-.341,1.47a13.591,13.591,0,0,0-2.933,3.889C355.039,7.6,354.219,9.6,353.3,11.1c-.327.531-.624.785-1.046.785H264.216c-.513,0-.841-.421-1.308-1.313" transform="translate(-254.98 0.69)" fill="#a9afb2"/></g><g data-type="innerShadowGroup"><g transform="matrix(1, 0, 0, 1, 42.88, -0.69)" filter="url(#f)"><path d="M427.843,54.216q.5.633.944,1.19l7.985-7.513c-.184-.235-.368-.478-.544-.728a3.654,3.654,0,0,1-.883-1.99l0-.021a18.328,18.328,0,0,0-.16-3.378c-.041-.393-.084-.8-.124-1.233-.047-.514-.144-1.12-.233-1.646-.037-.222-.076-.448-.116-.677l-.071-.413c-.07-.407-.12-.713-.162-.994l-.011-.072-.012-.087a5.114,5.114,0,0,1-.033-1.778c.281-.908.551-1.684.8-2.3a4.617,4.617,0,0,1,.757-1.407,1.247,1.247,0,0,1,.565-.264c.279-.055.915-.2,1.627-.29a3.781,3.781,0,0,0,.888-.251,1.306,1.306,0,0,0,.587-.722,1.851,1.851,0,0,0,0-1.151c-.135-.439-.569-.75-1.326-.953a9.944,9.944,0,0,0-2.173-.27c-.128,0-.256-.006-.38-.006-2.378,0-4.045.808-4.954,2.4a10.7,10.7,0,0,0-1.731,3.071c-.055.221-.091.463-.126.7s-.071.478-.125.691a1.577,1.577,0,0,1-.169.436.186.186,0,0,1-.065.011.542.542,0,0,1-.248-.082,25.319,25.319,0,0,0-4.382-1.243c-.3-.067-.537-.119-.683-.15-6.307-.807-12.53-3.824-15.382-5.364a5.618,5.618,0,0,0-2.2-.441h-4.209c-.085,0-.193,0-.318-.007-.174-.005-.39-.011-.618-.011a3.587,3.587,0,0,0-2.23.49,1.106,1.106,0,0,0-.291.357,1.476,1.476,0,0,0-.1.828,2.692,2.692,0,0,0,.338,1.077c.016.028.033.055.049.081s.034.052.052.078c.029.041.06.081.091.119a1.774,1.774,0,0,0,.311.3,1.6,1.6,0,0,0,.78.307c.056.007.115.011.176.012h.074c.744,0,1.418-.253,2.005-.253.649,0,.984.091,1.321.091a1.174,1.174,0,0,1,.149.009,5.444,5.444,0,0,1,2.86,1.276,13.4,13.4,0,0,0,2.648,1.823c.46.294.858.548,1.115.729a10.114,10.114,0,0,0,1.513.75,28.675,28.675,0,0,1,5.873,3.3,3.71,3.71,0,0,0,.488.3,1.781,1.781,0,0,1,.435.3A10,10,0,0,1,420.4,42.39c.058.127.109.242.155.351l.066.152.022.053c.079.191.161.388.26.581l.046.088c.236.5.484.988.746,1.5.214.422.435.858.67,1.339a24.957,24.957,0,0,0,2.462,4c.454.61.868,1.141,1.3,1.674.188.23.377.453.577.689.275.323.558.658.853,1.029l.284.36" transform="translate(-363.76 -14.21)" fill="#444041"/></g><g transform="matrix(1, 0, 0, 1, 42.88, -0.69)" filter="url(#h)"><path d="M427.843,54.216q.5.633.944,1.19l7.985-7.513c-.184-.235-.368-.478-.544-.728a3.654,3.654,0,0,1-.883-1.99l0-.021a18.328,18.328,0,0,0-.16-3.378c-.041-.393-.084-.8-.124-1.233-.047-.514-.144-1.12-.233-1.646-.037-.222-.076-.448-.116-.677l-.071-.413c-.07-.407-.12-.713-.162-.994l-.011-.072-.012-.087a5.114,5.114,0,0,1-.033-1.778c.281-.908.551-1.684.8-2.3a4.617,4.617,0,0,1,.757-1.407,1.247,1.247,0,0,1,.565-.264c.279-.055.915-.2,1.627-.29a3.781,3.781,0,0,0,.888-.251,1.306,1.306,0,0,0,.587-.722,1.851,1.851,0,0,0,0-1.151c-.135-.439-.569-.75-1.326-.953a9.944,9.944,0,0,0-2.173-.27c-.128,0-.256-.006-.38-.006-2.378,0-4.045.808-4.954,2.4a10.7,10.7,0,0,0-1.731,3.071c-.055.221-.091.463-.126.7s-.071.478-.125.691a1.577,1.577,0,0,1-.169.436.186.186,0,0,1-.065.011.542.542,0,0,1-.248-.082,25.319,25.319,0,0,0-4.382-1.243c-.3-.067-.537-.119-.683-.15-6.307-.807-12.53-3.824-15.382-5.364a5.618,5.618,0,0,0-2.2-.441h-4.209c-.085,0-.193,0-.318-.007-.174-.005-.39-.011-.618-.011a3.587,3.587,0,0,0-2.23.49,1.106,1.106,0,0,0-.291.357,1.476,1.476,0,0,0-.1.828,2.692,2.692,0,0,0,.338,1.077c.016.028.033.055.049.081s.034.052.052.078c.029.041.06.081.091.119a1.774,1.774,0,0,0,.311.3,1.6,1.6,0,0,0,.78.307c.056.007.115.011.176.012h.074c.744,0,1.418-.253,2.005-.253.649,0,.984.091,1.321.091a1.174,1.174,0,0,1,.149.009,5.444,5.444,0,0,1,2.86,1.276,13.4,13.4,0,0,0,2.648,1.823c.46.294.858.548,1.115.729a10.114,10.114,0,0,0,1.513.75,28.675,28.675,0,0,1,5.873,3.3,3.71,3.71,0,0,0,.488.3,1.781,1.781,0,0,1,.435.3A10,10,0,0,1,420.4,42.39c.058.127.109.242.155.351l.066.152.022.053c.079.191.161.388.26.581l.046.088c.236.5.484.988.746,1.5.214.422.435.858.67,1.339a24.957,24.957,0,0,0,2.462,4c.454.61.868,1.141,1.3,1.674.188.23.377.453.577.689.275.323.558.658.853,1.029l.284.36" transform="translate(-363.76 -14.21)" fill="#fff"/></g></g><g data-type="innerShadowGroup"><g transform="matrix(1, 0, 0, 1, 42.88, -0.69)" filter="url(#k)"><path d="M679.259,190.574,669.243,200l1.977,2.614,10.016-9.424Zm-7.582,10.391a1.064,1.064,0,1,1,.942-1.057,1,1,0,0,1-.942,1.057" transform="translate(-604.98 -157.18)" fill="#444041"/></g><g transform="matrix(1, 0, 0, 1, 42.88, -0.69)" filter="url(#m)"><path d="M679.259,190.574,669.243,200l1.977,2.614,10.016-9.424Zm-7.582,10.391a1.064,1.064,0,1,1,.942-1.057,1,1,0,0,1-.942,1.057" transform="translate(-604.98 -157.18)" fill="#fff"/></g></g><g data-type="innerShadowGroup"><g transform="matrix(1, 0, 0, 1, 42.88, -0.69)" filter="url(#p)"><path d="M11.282,0l-10,9.405L0,10.63S17.235,29.153,19.4,26.8s1.61-15.318,1.61-15.318Z" transform="matrix(0.99, -0.1, 0.1, 0.99, 66.49, 36.6)" fill="#444041"/></g><g transform="matrix(1, 0, 0, 1, 42.88, -0.69)" filter="url(#r)"><path d="M11.282,0l-10,9.405L0,10.63S17.235,29.153,19.4,26.8s1.61-15.318,1.61-15.318Z" transform="matrix(0.99, -0.1, 0.1, 0.99, 66.49, 36.6)" fill="#fff"/></g></g></g></g></g></g></g><g transform="matrix(1, 0, 0, 1, -10041, 1177.68)" filter="url(#u)"><text transform="translate(17.08 1.5)" fill="#010101" font-size="12" font-family="ITCAvantGardePro-Bk, ITC Avant Garde Gothic Pro"><tspan x="0" y="9">PER PERSON</tspan></text></g></g></svg>