<svg xmlns="http://www.w3.org/2000/svg" xmlns:xlink="http://www.w3.org/1999/xlink" width="130.273" height="100.79" viewBox="0 0 130.273 100.79">
  <defs>
    <clipPath id="clip-path">
      <rect x="42" width="130.273" height="100.79" fill="none"/>
    </clipPath>
    <clipPath id="clip-path-2">
      <path id="Path_77" data-name="Path 77" d="M0,0H174.274V100.79H0Z" transform="translate(0 -9.415)" fill="none"/>
    </clipPath>
    <clipPath id="clip-path-3">
      <rect id="Rectangle_108" data-name="Rectangle 108" width="223.076" height="100.79" fill="none"/>
    </clipPath>
    <filter id="Path_76" x="-2.332" y="-3.823" width="134.591" height="22.924" filterUnits="userSpaceOnUse">
      <feOffset dy="1" input="SourceAlpha"/>
      <feGaussianBlur stdDeviation="1" result="blur"/>
      <feFlood flood-opacity="0.608"/>
      <feComposite operator="in" in2="blur"/>
      <feComposite in="SourceGraphic"/>
    </filter>
    <filter id="Path_73" x="24.627" y="14.052" width="83.641" height="61.044" filterUnits="userSpaceOnUse">
      <feOffset dx="-2" dy="5" input="SourceAlpha"/>
      <feGaussianBlur stdDeviation="2" result="blur-2"/>
      <feFlood flood-opacity="0.584"/>
      <feComposite operator="in" in2="blur-2"/>
      <feComposite in="SourceGraphic"/>
    </filter>
    <filter id="Path_73-2" x="24.627" y="14.052" width="83.641" height="61.044" filterUnits="userSpaceOnUse">
      <feOffset dx="3" dy="1" input="SourceAlpha"/>
      <feGaussianBlur stdDeviation="1.5" result="blur-3"/>
      <feFlood flood-color="#868383" flood-opacity="0.322" result="color"/>
      <feComposite operator="out" in="SourceGraphic" in2="blur-3"/>
      <feComposite operator="in" in="color"/>
      <feComposite operator="in" in2="SourceGraphic"/>
    </filter>
    <filter id="Path_75" x="73.183" y="48.493" width="38.543" height="38.976" filterUnits="userSpaceOnUse">
      <feOffset dx="-2" dy="7" input="SourceAlpha"/>
      <feGaussianBlur stdDeviation="3" result="blur-4"/>
      <feFlood flood-opacity="0.569"/>
      <feComposite operator="in" in2="blur-4"/>
      <feComposite in="SourceGraphic"/>
    </filter>
    <filter id="Path_75-2" x="73.183" y="48.493" width="38.543" height="38.976" filterUnits="userSpaceOnUse">
      <feOffset dx="2" input="SourceAlpha"/>
      <feGaussianBlur stdDeviation="1.5" result="blur-5"/>
      <feFlood flood-color="#bcbaba" flood-opacity="0.161" result="color-2"/>
      <feComposite operator="out" in="SourceGraphic" in2="blur-5"/>
      <feComposite operator="in" in="color-2"/>
      <feComposite operator="in" in2="SourceGraphic"/>
    </filter>
    <filter id="Path_74" x="76.966" y="50.282" width="58.805" height="68.534" filterUnits="userSpaceOnUse">
      <feOffset dx="-2" dy="7" input="SourceAlpha"/>
      <feGaussianBlur stdDeviation="3" result="blur-6"/>
      <feFlood flood-opacity="0.58"/>
      <feComposite operator="in" in2="blur-6"/>
      <feComposite in="SourceGraphic"/>
    </filter>
    <filter id="Path_74-2" x="76.966" y="50.282" width="58.805" height="68.534" filterUnits="userSpaceOnUse">
      <feOffset dx="2" input="SourceAlpha"/>
      <feGaussianBlur stdDeviation="1.5" result="blur-7"/>
      <feFlood flood-color="#bcbaba" flood-opacity="0.161" result="color-3"/>
      <feComposite operator="out" in="SourceGraphic" in2="blur-7"/>
      <feComposite operator="in" in="color-3"/>
      <feComposite operator="in" in2="SourceGraphic"/>
    </filter>
    <filter id="per_person" x="27.773" y="1.915" width="82" height="16" filterUnits="userSpaceOnUse">
      <feOffset dy="1" input="SourceAlpha"/>
      <feGaussianBlur stdDeviation="0.5" result="blur-8"/>
      <feFlood flood-opacity="0.553"/>
      <feComposite operator="in" in2="blur-8"/>
      <feComposite in="SourceGraphic"/>
    </filter>
  </defs>
  <g id="Group_202" data-name="Group 202" transform="translate(9687 -1201)">
    <g id="Scroll_Group_33" data-name="Scroll Group 33" transform="translate(-9729 1201)" clip-path="url(#clip-path)" style="isolation: isolate">
      <g id="Group_201" data-name="Group 201" transform="translate(0 20.683)">
        <g id="Group_1" data-name="Group 1" transform="translate(0 -11.269)" clip-path="url(#clip-path-2)">
          <g id="Group_49" data-name="Group 49" transform="translate(-0.983 -9.415)">
            <g id="Group_48" data-name="Group 48" clip-path="url(#clip-path-3)">
              <path id="Path_70" data-name="Path 70" d="M537.167,27.486H532.68l8.738,7.761q2.191.771,4.711,1.538Z" transform="translate(-431.464 -12.385)" fill="#a5b0b5"/>
              <path id="Path_71" data-name="Path 71" d="M569.591,36.785q1.357.41,2.816.815c-.193-.418-.635-1.3-1.558-2.885a76.309,76.309,0,0,0-5.278-7.038l-.159-.191h-3.766Z" transform="translate(-454.926 -12.385)" fill="#a5b0b5"/>
              <path id="Path_72" data-name="Path 72" d="M494.844,27.486h-7.435a19.515,19.515,0,0,1,1.912.887,112.748,112.748,0,0,0,15.429,6.874Z" transform="translate(-394.795 -12.385)" fill="#a5b0b5"/>
              <g transform="matrix(1, 0, 0, 1, 42.98, 0)" filter="url(#Path_76)">
                <path id="Path_76-2" data-name="Path 76" d="M264.4,15.054c-.872-1.885-1.713-3.9-2.6-5.693a26.311,26.311,0,0,0-3.334-4.884c-.333-.431-.669-.875-1-1.385a3.964,3.964,0,0,1-.278-1.929c0-.589.181-1.163.375-1.163H385.344c.249,0,.429.337.429,1,0,.7-.029,1.732-.429,2.093a19.322,19.322,0,0,0-3.7,5.539c-1.152,2.194-2.185,5.046-3.344,7.175-.412.757-.786,1.118-1.319,1.118H266.045c-.647,0-1.06-.6-1.648-1.87" transform="translate(-256.51 -1.82)" fill="#a9afb2"/>
              </g>
              <g data-type="innerShadowGroup">
                <g transform="matrix(1, 0, 0, 1, 42.98, 0)" filter="url(#Path_73)">
                  <path id="Path_73-3" data-name="Path 73" d="M449.175,74.229q.856,1.1,1.618,2.074L464.47,63.211c-.315-.409-.631-.834-.931-1.268-1.067-1.547-1.576-2.713-1.513-3.467l0-.037a32.478,32.478,0,0,0-.274-5.885c-.071-.685-.145-1.393-.213-2.149-.081-.9-.247-1.952-.4-2.867-.064-.387-.131-.781-.2-1.179-.04-.239-.082-.48-.122-.72-.12-.709-.205-1.243-.278-1.732l-.018-.125-.021-.152a9.06,9.06,0,0,1-.056-3.1c.481-1.583.944-2.933,1.378-4.014a8.079,8.079,0,0,1,1.3-2.452,2.12,2.12,0,0,1,.967-.46c.478-.1,1.568-.343,2.787-.506a6.391,6.391,0,0,0,1.521-.438,2.27,2.27,0,0,0,1-1.258,3.278,3.278,0,0,0,0-2.005c-.231-.764-.974-1.307-2.272-1.66a16.759,16.759,0,0,0-3.723-.47c-.22-.007-.439-.011-.651-.011-4.073,0-6.928,1.407-8.485,4.183a18.726,18.726,0,0,0-2.965,5.351c-.094.385-.155.807-.215,1.216s-.122.833-.214,1.2a2.776,2.776,0,0,1-.29.759.314.314,0,0,1-.112.019.917.917,0,0,1-.425-.143c-1.1-.629-4.69-1.525-7.505-2.165-.509-.116-.92-.207-1.17-.261-10.8-1.406-21.463-6.662-26.348-9.346a9.481,9.481,0,0,0-3.775-.768h-7.21c-.145,0-.331-.005-.545-.012-.3-.009-.668-.02-1.059-.02-1.906,0-3.12.271-3.82.854a1.92,1.92,0,0,0-.5.623,2.613,2.613,0,0,0-.171,1.443,4.75,4.75,0,0,0,.579,1.876c.027.049.056.1.084.141s.058.09.089.136c.05.072.1.142.155.208a3.065,3.065,0,0,0,.533.52,2.713,2.713,0,0,0,1.336.535c.1.012.2.018.3.021h.126c1.275,0,2.429-.442,3.435-.442,1.111,0,1.686.158,2.263.158a1.976,1.976,0,0,1,.255.016c1.511.2,4.052,1.158,4.9,2.223.688.865,2.031,1.548,4.536,3.176.789.512,1.469.955,1.91,1.27a17.219,17.219,0,0,0,2.591,1.306,48.883,48.883,0,0,1,10.06,5.751,6.349,6.349,0,0,0,.836.526,3.051,3.051,0,0,1,.745.515,17.43,17.43,0,0,1,3.741,5.49c.1.221.186.422.266.612.037.089.075.178.113.266l.037.092c.135.332.275.676.446,1.012l.078.154c.4.871.829,1.722,1.277,2.622.366.735.745,1.5,1.147,2.333a43.634,43.634,0,0,0,4.218,6.977c.778,1.062,1.488,1.989,2.232,2.917.321.4.645.789.988,1.2.47.564.956,1.147,1.461,1.793l.487.627" transform="translate(-365.29 -12.21)" fill="#444041"/>
                </g>
                <g transform="matrix(1, 0, 0, 1, 42.98, 0)" filter="url(#Path_73-2)">
                  <path id="Path_73-4" data-name="Path 73" d="M449.175,74.229q.856,1.1,1.618,2.074L464.47,63.211c-.315-.409-.631-.834-.931-1.268-1.067-1.547-1.576-2.713-1.513-3.467l0-.037a32.478,32.478,0,0,0-.274-5.885c-.071-.685-.145-1.393-.213-2.149-.081-.9-.247-1.952-.4-2.867-.064-.387-.131-.781-.2-1.179-.04-.239-.082-.48-.122-.72-.12-.709-.205-1.243-.278-1.732l-.018-.125-.021-.152a9.06,9.06,0,0,1-.056-3.1c.481-1.583.944-2.933,1.378-4.014a8.079,8.079,0,0,1,1.3-2.452,2.12,2.12,0,0,1,.967-.46c.478-.1,1.568-.343,2.787-.506a6.391,6.391,0,0,0,1.521-.438,2.27,2.27,0,0,0,1-1.258,3.278,3.278,0,0,0,0-2.005c-.231-.764-.974-1.307-2.272-1.66a16.759,16.759,0,0,0-3.723-.47c-.22-.007-.439-.011-.651-.011-4.073,0-6.928,1.407-8.485,4.183a18.726,18.726,0,0,0-2.965,5.351c-.094.385-.155.807-.215,1.216s-.122.833-.214,1.2a2.776,2.776,0,0,1-.29.759.314.314,0,0,1-.112.019.917.917,0,0,1-.425-.143c-1.1-.629-4.69-1.525-7.505-2.165-.509-.116-.92-.207-1.17-.261-10.8-1.406-21.463-6.662-26.348-9.346a9.481,9.481,0,0,0-3.775-.768h-7.21c-.145,0-.331-.005-.545-.012-.3-.009-.668-.02-1.059-.02-1.906,0-3.12.271-3.82.854a1.92,1.92,0,0,0-.5.623,2.613,2.613,0,0,0-.171,1.443,4.75,4.75,0,0,0,.579,1.876c.027.049.056.1.084.141s.058.09.089.136c.05.072.1.142.155.208a3.065,3.065,0,0,0,.533.52,2.713,2.713,0,0,0,1.336.535c.1.012.2.018.3.021h.126c1.275,0,2.429-.442,3.435-.442,1.111,0,1.686.158,2.263.158a1.976,1.976,0,0,1,.255.016c1.511.2,4.052,1.158,4.9,2.223.688.865,2.031,1.548,4.536,3.176.789.512,1.469.955,1.91,1.27a17.219,17.219,0,0,0,2.591,1.306,48.883,48.883,0,0,1,10.06,5.751,6.349,6.349,0,0,0,.836.526,3.051,3.051,0,0,1,.745.515,17.43,17.43,0,0,1,3.741,5.49c.1.221.186.422.266.612.037.089.075.178.113.266l.037.092c.135.332.275.676.446,1.012l.078.154c.4.871.829,1.722,1.277,2.622.366.735.745,1.5,1.147,2.333a43.634,43.634,0,0,0,4.218,6.977c.778,1.062,1.488,1.989,2.232,2.917.321.4.645.789.988,1.2.47.564.956,1.147,1.461,1.793l.487.627" transform="translate(-365.29 -12.21)" fill="#fff"/>
                </g>
              </g>
              <g data-type="innerShadowGroup">
                <g transform="matrix(1, 0, 0, 1, 42.98, 0)" filter="url(#Path_75)">
                  <path id="Path_75-3" data-name="Path 75" d="M686.4,190.574,669.243,207l3.387,4.554,17.156-16.421ZM673.411,208.68a1.859,1.859,0,1,1,1.613-1.842,1.739,1.739,0,0,1-1.613,1.842" transform="translate(-585.06 -140.08)" fill="#444041"/>
                </g>
                <g transform="matrix(1, 0, 0, 1, 42.98, 0)" filter="url(#Path_75-2)">
                  <path id="Path_75-4" data-name="Path 75" d="M686.4,190.574,669.243,207l3.387,4.554,17.156-16.421ZM673.411,208.68a1.859,1.859,0,1,1,1.613-1.842,1.739,1.739,0,0,1-1.613,1.842" transform="translate(-585.06 -140.08)" fill="#fff"/>
                </g>
              </g>
              <g data-type="innerShadowGroup">
                <g transform="matrix(1, 0, 0, 1, 42.98, 0)" filter="url(#Path_74)">
                  <path id="Path_74-3" data-name="Path 74" d="M19.329-.035,2.173,16.381-.033,18.519s29.471,32.216,33.184,28.1,2.805-26.69,2.805-26.69Z" transform="matrix(0.99, -0.1, 0.1, 0.99, 88, 56.09)" fill="#444041"/>
                </g>
                <g transform="matrix(1, 0, 0, 1, 42.98, 0)" filter="url(#Path_74-2)">
                  <path id="Path_74-4" data-name="Path 74" d="M19.329-.035,2.173,16.381-.033,18.519s29.471,32.216,33.184,28.1,2.805-26.69,2.805-26.69Z" transform="matrix(0.99, -0.1, 0.1, 0.99, 88, 56.09)" fill="#fff"/>
                </g>
              </g>
            </g>
          </g>
        </g>
      </g>
      <g transform="matrix(1, 0, 0, 1, 42, 0)" filter="url(#per_person)">
        <text id="per_person-2" data-name="per person" transform="translate(29.27 2.41)" fill="#010101" font-size="13" font-family="ITCAvantGardePro-Bk, ITC Avant Garde Gothic Pro"><tspan x="0" y="10">PER PERSON</tspan></text>
      </g>
    </g>
  </g>
</svg>
